<svg version="1.1" xmlns="http://www.w3.org/2000/svg" width="65" height="60" viewBox="0 0 511.999 511.999"><path style="fill:#D2873C;" d="M208.762,87.836c0-12.608,3.149-24.489,8.689-34.958L174.109,9.372c-2.037-2.046-5.371-2.046-7.407,0 l-66.299,66.547c-2.037,2.046-2.037,5.391,0,7.437l68.548,68.81c9.581-17.254,25.78-30.458,45.251-36.356 C210.706,107.148,208.762,97.718,208.762,87.836z"/><path style="opacity:0.1;enable-background:new;" d="M182.401,134.581l-67.975-68.235c-0.838-0.842-1.327-1.896-1.497-2.994 l-12.525,12.567c-2.037,2.046-2.037,5.391,0,7.437l68.548,68.81C172.557,145.673,177.1,139.754,182.401,134.581z"/><path style="fill:#A0C663;" d="M335.544,112.423c7.987,0,15.69,1.186,22.941,3.383c3.496-8.659,5.428-18.091,5.428-27.971	c0-41.999-34.731-76.047-77.575-76.047c-42.843,0-77.575,34.048-77.575,76.047c0,9.878,1.942,19.309,5.439,27.968 c7.247-2.196,14.947-3.38,22.93-3.38c18.682,0,35.808,6.484,49.192,17.269C299.715,118.902,316.856,112.423,335.544,112.423z"/><path style="opacity:0.1;enable-background:new ;" d="M237.131,112.423c2.895,0,5.75,0.168,8.564,0.471 c-2.794-7.847-4.327-16.275-4.327-25.058c0-36.515,26.259-67.007,61.272-74.351c-5.258-1.102-10.709-1.696-16.304-1.696 c-42.843,0-77.575,34.048-77.575,76.047c0,9.878,1.942,19.309,5.439,27.968C221.449,113.608,229.148,112.423,237.131,112.423z"/><path style="fill:#FFF0C0;" d="M257.97,188.469c0-23.688,11.05-44.843,28.369-58.789c-13.389-10.782-30.526-17.259-49.206-17.259	c-42.843,0-77.574,34.046-77.574,76.047c0,22.92,10.357,43.454,26.717,57.397c0.671-0.575,1.497-0.928,2.402-0.928h94.917 C267.861,231.021,257.97,210.879,257.97,188.469z"/><path style="opacity:0.1;enable-background:new;" d="M188.676,244.939h29.235c-15.745-13.914-25.652-34.051-25.652-56.469 c0-36.5,26.235-66.979,61.224-74.339c-5.273-1.11-10.739-1.707-16.351-1.707c-42.843,0-77.574,34.046-77.574,76.047 c0,22.92,10.357,43.454,26.717,57.397C186.945,245.292,187.77,244.939,188.676,244.939z"/><path style="fill:#FCA181;" d="M335.544,112.423c-42.845,0-77.575,34.046-77.575,76.047c0,22.41,9.892,42.551,25.624,56.469h100.406 c0.906,0,1.731,0.353,2.402,0.928c16.36-13.943,26.717-34.477,26.717-57.397C413.118,146.469,378.388,112.423,335.544,112.423z"/><path style="opacity:0.1;enable-background:new;" d="M283.594,244.939h32.537c-15.745-13.915-25.651-34.052-25.651-56.469 c0-36.534,26.281-67.036,61.32-74.361c-5.243-1.097-10.678-1.685-16.254-1.685c-42.845,0-77.575,34.046-77.575,76.047 C257.97,210.879,267.861,231.021,283.594,244.939z"/><path style="fill:#FFAA0E;" d="M367.995,287.753c-7.731,0-14.633-4.927-18.008-12.853c-0.443-1.042-1.388-1.714-2.405-1.714 s-1.962,0.672-2.405,1.714c-3.378,7.93-10.279,12.853-18.01,12.853c-7.732,0-14.633-4.927-18.009-12.853 c-0.443-1.042-1.388-1.714-2.405-1.714s-1.962,0.672-2.405,1.714c-3.377,7.93-10.278,12.853-18.01,12.853 c-7.731,0-14.632-4.924-18.008-12.853c-0.444-1.042-1.388-1.714-2.405-1.714c-1.02,0-1.962,0.672-2.405,1.712 c-3.377,7.929-10.278,12.855-18.01,12.855c-7.73,0-14.632-4.924-18.009-12.853c-0.443-1.042-1.387-1.714-2.405-1.714 s-1.962,0.672-2.404,1.712c-3.376,7.929-10.277,12.855-18.009,12.855c-1.346,0-2.659-0.154-3.931-0.442l83.684,214.835 c1.048,2.69,2.762,2.69,3.81,0l83.684-214.835C370.655,287.599,369.34,287.753,367.995,287.753z"/><path style="fill:#554141;" d="M367.995,287.753c-7.731,0-14.633-4.927-18.008-12.853c-0.443-1.042-1.388-1.714-2.405-1.714 s-1.962,0.672-2.405,1.714c-3.378,7.93-10.279,12.853-18.01,12.853c-7.732,0-14.633-4.927-18.009-12.853 c-0.443-1.042-1.388-1.714-2.405-1.714s-1.962,0.672-2.405,1.714c-3.377,7.93-10.278,12.853-18.01,12.853 c-7.731,0-14.632-4.924-18.008-12.853c-0.444-1.042-1.388-1.714-2.405-1.714c-1.02,0-1.962,0.672-2.405,1.712 c-3.377,7.929-10.278,12.855-18.01,12.855c-7.73,0-14.632-4.924-18.009-12.853c-0.443-1.042-1.387-1.714-2.405-1.714	s-1.962,0.672-2.404,1.712c-3.376,7.929-10.277,12.855-18.009,12.855c-11.034,0-20.012-10.178-20.012-22.693v-15.575 c0-2.511,1.794-4.546,4.007-4.546h195.322c2.214,0,4.007,2.034,4.007,4.546v15.575C388.006,277.574,379.031,287.753,367.995,287.753 z"/><path style="opacity:0.1;enable-background:new;" d="M227.5,274.9c-0.443-1.042-1.387-1.714-2.405-1.714 s-1.962,0.672-2.404,1.712c-3.376,7.929-10.277,12.855-18.009,12.855c-1.346,0-2.659-0.154-3.931-0.442l83.684,214.835 c1.048,2.69,2.762,2.69,3.81,0l14.492-37.203l-71.821-184.381C229.56,278.911,228.401,277.016,227.5,274.9z"/><g style="opacity:0.1;"><path d="M206.26,265.06v-15.575c0-2.511,1.794-4.546,4.007-4.546h-21.591c-2.213,0-4.007,2.034-4.007,4.546v15.575 c0,12.515,8.978,22.693,20.012,22.693c3.94,0,7.66-1.284,10.812-3.588C209.945,280.127,206.26,273.076,206.26,265.06z"/></g><ellipse cx="191.404" cy="191.613" rx="10.258" ry="10.056"/><ellipse cx="228.644" cy="212.511" rx="10.258" ry="10.056"/><ellipse cx="230.065" cy="171.76" rx="10.258" ry="10.056"/><ellipse cx="196.241" cy="155.293" rx="10.259" ry="10.056"/><path d="M420.955,188.469c0-4.329-3.509-7.837-7.837-7.837c-4.328,0-7.837,3.508-7.837,7.837c0,19.033-8.013,36.267-20.912,48.653 c-0.124-0.004-0.246-0.02-0.371-0.02h-22.467c-4.328,0-7.837,3.508-7.837,7.837c0,4.329,3.509,7.837,7.837,7.837h18.638v12.285 c0,8.192-5.462,14.856-12.174,14.856c-4.536,0-8.674-3.099-10.796-8.081c-1.675-3.94-5.449-6.485-9.618-6.485 c-4.168,0-7.943,2.545-9.615,6.478c-2.125,4.989-6.263,8.087-10.8,8.087c-4.536,0-8.674-3.099-10.797-8.081 c-1.674-3.94-5.449-6.485-9.618-6.485c-4.168,0-7.943,2.545-9.615,6.479c-2.124,4.987-6.262,8.086-10.8,8.086 c-4.537,0-8.674-3.098-10.799-8.087c-1.676-3.936-5.451-6.478-9.615-6.478c-4.165,0-7.939,2.543-9.615,6.476 c-2.126,4.989-6.264,8.09-10.8,8.09s-8.675-3.099-10.797-8.081c-1.674-3.94-5.449-6.485-9.617-6.485 c-4.169,0-7.943,2.545-9.615,6.477c-2.124,4.989-6.262,8.089-10.799,8.089c-6.713,0-12.175-6.664-12.175-14.856v-12.285h138.724 c4.328,0,7.837-3.508,7.837-7.837c0-4.329-3.509-7.837-7.837-7.837h-44.528c-12.886-12.383-20.892-29.609-20.892-48.633 c0-37.611,31.284-68.21,69.739-68.21c28.571,0,54.709,17.5,65.042,43.547c1.597,4.023,6.154,5.987,10.174,4.395 c4.023-1.596,5.99-6.151,4.395-10.174c-6.183-15.585-16.868-28.887-30.901-38.471c-5.003-3.417-10.315-6.257-15.85-8.525	c2.17-7.37,3.346-15.147,3.346-23.194c0-10.366-1.905-20.489-5.661-30.089c-1.579-4.03-6.125-6.02-10.154-4.442	c-4.03,1.578-6.019,6.123-4.442,10.154c3.042,7.772,4.584,15.973,4.584,24.376c0,6.45-0.943,12.684-2.664,18.6 c-5.825-1.215-11.803-1.851-17.868-1.851c-18.318,0-35.294,5.712-49.217,15.39c-13.918-9.677-30.883-15.39-49.196-15.39 c-6.127,0-12.101,0.65-17.865,1.86c-1.723-5.92-2.668-12.157-2.668-18.611c0-37.611,31.285-68.21,69.739-68.21 c20.063,0,39.169,8.465,52.42,23.224c2.892,3.22,7.846,3.488,11.067,0.596c3.22-2.892,3.487-7.847,0.596-11.068 c-16.219-18.064-39.576-28.425-64.083-28.425c-29.145,0-54.915,14.42-70.335,36.368L179.664,3.843 C177.197,1.366,173.909,0,170.406,0c-3.504,0-6.791,1.365-9.256,3.841l-66.3,66.55c-5.076,5.099-5.076,13.395,0.001,18.496	l64.578,64.823c-4.935,10.598-7.708,22.363-7.708,34.76c0,23.205,9.66,44.221,25.222,59.419c-0.065,0.523-0.11,1.054-0.11,1.596 v15.575c0,13.014,7.469,24.145,17.953,28.531l82.346,211.4c2.534,6.504,7.687,7.009,9.207,7.009s6.674-0.505,9.208-7.009 l82.345-211.399c10.483-4.384,17.953-15.518,17.953-28.532v-15.575c0-0.542-0.045-1.072-0.11-1.596 C411.295,232.69,420.955,211.674,420.955,188.469z M347.581,285.855c3.531,4.207,8.059,7.212,13.117,8.691l-1.449,3.72h-23.503 v-4.129C340.286,292.548,344.35,289.704,347.581,285.855z M342.453,341.387h-6.706V313.94h17.398L342.453,341.387z M308.858,427.629 h-14.684v-27.447h25.375L308.858,427.629z M253.126,400.181h25.375v27.447h-14.684L253.126,400.181z M278.65,313.94	c0.706,3.603,3.878,6.322,7.687,6.322s6.981-2.719,7.687-6.322h26.047v27.447h-25.898v-0.75c0-4.329-3.509-7.837-7.837-7.837 s-7.837,3.508-7.837,7.837v0.75h-28.977V313.94H278.65z M294.174,384.508V357.06h25.898v27.447H294.174z M278.501,384.508h-28.977 V357.06h28.977V384.508z M233.85,341.387h-3.626l-10.692-27.447h14.317v27.447H233.85z M306.753,285.855	c3.578,4.263,8.181,7.291,13.32,8.749v3.662h-25.898v-3.892C299.013,292.843,303.348,289.912,306.753,285.855z M265.923,285.855	c3.404,4.057,7.738,6.988,12.578,8.519v3.892h-28.977v-2.994C255.899,294.282,261.644,290.954,265.923,285.855z M225.094,285.855 c2.481,2.955,5.455,5.309,8.756,6.967v5.444h-20.423l-1.449-3.72C217.035,293.068,221.562,290.064,225.094,285.855z M207.987,54.481 c-1.097,2.476-2.074,5.013-2.928,7.605l-8.777,8.812l-14.423-14.478l14.029-14.082L207.987,54.481z M196.282,93.105l5.356,5.376 c0.557,4.299,1.456,8.493,2.656,12.562c-3.498,1.437-6.87,3.106-10.116,4.97l-10.358-10.398L196.282,93.105z M172.758,94.509 l-14.423-14.476l12.461-12.51l14.423,14.476L172.758,94.509z M170.405,16.757l14.422,14.476l-14.029,14.083L156.376,30.84	L170.405,16.757z M145.314,41.943l14.422,14.476l-12.461,12.51l-14.422-14.476L145.314,41.943z M107.762,79.638l14.029-14.082 l14.423,14.478l-14.029,14.082L107.762,79.638z M133.246,105.219l14.03-14.082l14.422,14.476l-14.03,14.082L133.246,105.219z M158.729,130.799l14.03-14.083l8.423,8.454c-5.066,4.326-9.607,9.221-13.522,14.593L158.729,130.799z M188.305,237.122 c-12.898-12.384-20.912-29.62-20.912-48.653c0-28.693,18.216-53.287,43.923-63.346c0.615,4.978,4.933,8.837,10.174,8.837 c5.665,0,10.26-4.504,10.26-10.057c0-1.187-0.22-2.32-0.605-3.375c1.975-0.165,3.967-0.269,5.985-0.269 c13.475,0,26.056,3.774,36.729,10.279c-2.922,2.999-5.609,6.217-8.057,9.613c-1.824-2.785-5.005-4.635-8.632-4.635 c-5.666,0-10.259,4.5-10.259,10.055c0,5.494,4.495,9.952,10.076,10.048c-4.4,10.094-6.858,21.191-6.858,32.85	c0,18.121,5.897,34.904,15.883,48.633h-77.338C188.551,237.102,188.43,237.118,188.305,237.122z M269.922,443.302h8.579v22.024 L269.922,443.302z M294.174,465.326v-22.024h8.58L294.174,465.326z"/><path d="M333.992,149.649c4.328,0,7.837-3.508,7.837-7.837c0-4.329-3.509-7.837-7.837-7.837h-7.982 c-4.328,0-7.837,3.508-7.837,7.837c0,4.329,3.509,7.837,7.837,7.837H333.992z"/><path d="M306.908,170.149c0-4.329-3.509-7.837-7.837-7.837h-7.982c-4.328,0-7.837,3.508-7.837,7.837 c0,4.329,3.509,7.837,7.837,7.837h7.982C303.399,177.986,306.908,174.477,306.908,170.149z"/><path d="M331.997,185.331h7.982c4.328,0,7.837-3.508,7.837-7.837c0-4.329-3.509-7.837-7.837-7.837h-7.982 c-4.328,0-7.837,3.508-7.837,7.837C324.16,181.824,327.669,185.331,331.997,185.331z"/><path d="M375.898,189.599h-7.982c-4.328,0-7.837,3.508-7.837,7.837c0,4.329,3.509,7.837,7.837,7.837h7.982 c4.328,0,7.837-3.508,7.837-7.837C383.735,193.108,380.226,189.599,375.898,189.599z"/><path d="M376.895,152.866h-7.982c-4.328,0-7.837,3.508-7.837,7.837c0,4.329,3.509,7.837,7.837,7.837h7.982 c4.328,0,7.837-3.508,7.837-7.837C384.732,156.374,381.224,152.866,376.895,152.866z"/><path d="M305.057,211.57h7.982c4.328,0,7.837-3.508,7.837-7.837c0-4.329-3.509-7.837-7.837-7.837h-7.982 c-4.328,0-7.837,3.508-7.837,7.837C297.22,208.062,300.729,211.57,305.057,211.57z"/></svg>