<svg xmlns="http://www.w3.org/2000/svg" width="65" height="60" viewbox="0 0 512 512"><path style="fill:#B3D8F4;" d="M360.646,109.695c-3.213-3.43-7.75-5.398-12.45-5.398H170.747c-4.699,0-9.237,1.968-12.45,5.398 c-3.212,3.431-4.877,8.088-4.569,12.776l5.332,81.108l17.093,259.715l-6.668,27.094c-1.289,5.24-0.12,10.681,3.209,14.928 c3.329,4.248,8.332,6.684,13.729,6.684h146.091c5.397,0,10.401-2.436,13.729-6.684c3.329-4.247,4.498-9.688,3.208-14.928 l-6.665-27.08l17.094-259.73l5.333-81.107C365.523,117.783,363.858,113.126,360.646,109.695z"/><path style="fill:#C2DFF6;" d="M350.079,121.478l-5.329,81.108l-0.03,0.495l-16.675,253.304H190.897l-16.675-253.304l-0.03-0.495 l-5.329-81.108c-0.04-0.677,0.253-1.143,0.506-1.416c0.253-0.273,0.698-0.597,1.375-0.597h177.454c0.677,0,1.122,0.324,1.375,0.597 C349.826,120.335,350.12,120.8,350.079,121.478z"/><path style="fill:#B3D8F4;" d="M350.079,121.478l-5.329,81.108l-0.03,0.495l-16.675,253.304H221.233l-16.675-253.304l-0.03-0.495 l-5.329-81.108c-0.04-0.677,0.253-1.143,0.506-1.416c0.253-0.273,0.698-0.597,1.375-0.597h147.118c0.677,0,1.122,0.324,1.375,0.597 C349.826,120.335,350.12,120.8,350.079,121.478z"/><polygon style="fill:#FFDA44;" points="344.72,203.081 328.045,456.384 190.897,456.384 174.223,203.081 "/><polygon style="fill:#EEBF00;" points="220.748,456.384 190.897,456.384 174.223,203.081 204.558,203.081 "/><g><path style="fill:#9BC9FF;" d="M220.823,262.633l-30.429-20.134c-6.829-4.518-8.701-13.717-4.183-20.545l20.134-30.429 c4.518-6.829,13.717-8.701,20.545-4.183l30.429,20.134c6.829,4.518,8.701,13.717,4.183,20.545l-20.134,30.429 C236.851,265.279,227.652,267.152,220.823,262.633z"/><path style="fill:#9BC9FF;" d="M323.673,232.46l-35.927,6.365c-8.062,1.429-15.756-3.95-17.185-12.012l-6.365-35.927 c-1.429-8.062,3.95-15.756,12.012-17.185l35.927-6.365c8.062-1.429,15.756,3.95,17.185,12.012l6.365,35.927 C337.114,223.337,331.736,231.031,323.673,232.46z"/></g><circle style="fill:#A4E276;" cx="161.215" cy="113.102" r="71.778"/><path style="fill:#B6E892;" d="M200.483,133.339c-5.814,11.295-15.835,19.021-27.171,22.246 c-10.415,2.983-21.943,2.144-32.338-3.205c-21.69-11.174-30.214-37.819-19.041-59.509c9.819-19.071,31.59-27.97,51.439-22.256 c2.74,0.789,5.44,1.85,8.069,3.205C203.133,84.994,211.657,111.639,200.483,133.339z"/><path style="fill:#C9EEAE;" d="M200.483,133.339c-5.814,11.295-15.835,19.021-27.171,22.246c-2.74-0.789-5.44-1.85-8.069-3.205 c-21.69-11.174-30.214-37.819-19.041-59.509c5.814-11.305,15.835-19.031,27.171-22.256c2.74,0.789,5.44,1.85,8.069,3.205 C203.133,84.994,211.657,111.639,200.483,133.339z"/><g><path style="fill:#57A4FF;" d="M261.499,228.017l-20.133,30.437c-4.52,6.826-13.712,8.696-20.547,4.176l-30.427-20.133 c-6.826-4.52-8.696-13.712-4.176-20.547l12.488-18.869h51.965l6.654,4.399C264.148,211.989,266.019,221.191,261.499,228.017z"/><path style="fill:#57A4FF;" d="M323.677,232.456l-35.928,6.371c-8.069,1.426-15.764-3.954-17.19-12.013l-4.196-23.733h67.163 l2.164,12.195C337.116,223.335,331.736,231.03,323.677,232.456z"/></g><path style="fill:#91DC5A;" d="M202.506,171.815c-8.838,6.209-18.96,10.324-29.537,12.094l-1.83-27.767l-2.275-34.664 c-0.04-0.677,0.253-1.143,0.506-1.416c0.253-0.273,0.698-0.597,1.375-0.597h30.336c-0.678,0-1.122,0.324-1.375,0.597 c-0.253,0.273-0.546,0.738-0.506,1.416l0.829,12.69L202.506,171.815z"/><path style="fill:#B6E892;" d="M199.199,121.478l0.829,12.69c-6.239,11.558-16.958,19.223-28.89,21.973l-2.275-34.664 c-0.04-0.677,0.253-1.143,0.506-1.416c0.253-0.273,0.698-0.597,1.375-0.597h30.336c-0.678,0-1.122,0.324-1.375,0.597 C199.452,120.335,199.159,120.8,199.199,121.478z"/><path style="fill:#78B9EB;" d="M346.247,505.316c-3.327,4.247-8.332,6.684-13.732,6.684H186.428c-5.4,0-10.405-2.437-13.732-6.684 s-4.5-9.687-3.205-14.925l1.77-7.21h176.423l1.77,7.21C350.746,495.629,349.573,501.069,346.247,505.316z"/><path d="M430.125,6.778c-0.455-4.166-4.196-7.179-8.352-6.735c-3.162,0.347-82.995,24.631-86.194,26.23 c-10.011,4.449-15.926,14.318-17.585,29.264c-1.778,14.456-3.807,30.951-6.002,48.76h-1.921c-4.188,0-7.584,3.396-7.584,7.584 c0,4.188,3.396,7.584,7.584,7.584h0.051c-1.73,14.034-3.433,27.87-5.1,41.43l-30.137,5.339 c-12.244,2.169-20.316,13.801-18.157,25.977l0.582,3.286h-4.352c-19.203-11.716-23.483-18.201-34.235-18.201 c-16.108,0-20.886,14.666-24.1,18.201h-20.889l-0.262-3.977c36.483-5.659,63.892-35.644,66.852-72.055h39.411 c4.188,0,7.584-3.396,7.584-7.584c0-4.188-3.396-7.584-7.584-7.584h-39.642c-4.491-40.592-38.919-70.575-78.823-70.575 c-30.853,0-58.671,17.575-71.885,45.62c-1.786,3.79-0.161,8.308,3.628,10.093c3.791,1.787,8.308,0.161,10.093-3.628 c10.703-22.727,33.231-36.916,58.164-36.916c31.374,0,59.107,23.089,63.546,55.407h-12.58 c-4.351-25.425-26.477-42.974-50.989-42.974c-29.145,0-51.811,23.694-51.811,51.74c0,27.001,20.491,49.121,47.068,51.573 l0.826,12.561C124.154,175.246,97,147.729,97,113.041c0-12.12-14.997-10.704-15.158-1.272c-0.72,44.201,34.208,79.111,76.488,80.652 c1.17,17.838,16.674,253.394,17.824,270.873c-6.616,27.539-7.178,27.599-7.178,31.283c0,9.606,7.827,17.422,17.447,17.422h107.088 c4.188,0,7.584-3.396,7.584-7.584c0-4.188-3.396-7.584-7.584-7.584H186.424c-1.409,0-2.279-1.17-2.279-2.254 c0-0.526-0.221,0.717,5.598-23.026c16.872,0,124.295,0,139.454,0l5.527,22.458c0.347,1.426-0.697,2.822-2.208,2.822h-8.667 c-4.188,0-7.584,3.396-7.584,7.584c0,4.188,3.396,7.584,7.584,7.584h8.667c11.267,0,19.651-10.567,16.937-21.612l-6.665-27.08 c0.176-2.663,22.464-340.927,22.464-341.967c0-9.398-7.651-17.044-17.055-17.044h-20.925c2.105-17.103,4.062-32.975,5.778-47 c1.042-9.313,3.832-14.905,8.534-17.089c10.8-4.085,78.428-23.985,82.958-25.29C428.093,13.968,430.53,10.55,430.125,6.778z M153.729,122.472l1.762,26.78c-17.626-2.777-30.888-17.939-30.888-36.188c0-19.995,16.201-36.572,36.644-36.572 c16.651,0,31.427,11.36,35.482,27.805h-25.981C160.977,104.297,153.089,112.551,153.729,122.472z M168.859,121.341 c0-1.033,0.846-1.875,1.887-1.875h26.518c-2.397,13.602-12.488,25.248-26.625,28.999 C169.644,133.293,169.857,136.534,168.859,121.341z M170.615,148.089c-0.002-0.024-0.003-0.044-0.004-0.062 C170.613,148.047,170.614,148.067,170.615,148.089z M171.65,163.817c21.894-4.475,38.196-22.446,40.935-44.351h12.503 c-2.74,27.928-23.737,51.744-52.616,56.852L171.65,163.817z M318.482,175.741c4.602,2.799,3.219,7.585,5.996,19.756h-8.425 C316.867,188.869,317.678,182.273,318.482,175.741z M314.192,210.665h12.975c0.053,3.233,3.308,8.761-1.401,12.731 c-2.452,2.065-4.622,1.554-13.552,3.391C312.872,221.413,313.533,216.035,314.192,210.665z M277.53,181.169l25.556-4.528 c-0.78,6.353-1.551,12.642-2.314,18.856h-28.059c-0.991-5.774-1.165-6.131-1.165-7.214 C271.549,184.775,274.065,181.784,277.53,181.169z M298.912,210.665c-0.785,6.387-1.557,12.686-2.318,18.891 c-0.101,0.017-11.55,1.923-11.449,1.915c-1.609-0.001-3.106-0.534-4.319-1.439c-3.168-2.369-2.807-4.588-5.422-19.367 L298.912,210.665L298.912,210.665z M218.723,192.463c3.126,0,4.682,1.859,6.747,3.034h-12.64 C214.191,193.598,216.369,192.463,218.723,192.463z M202.779,210.665h45.61c3,2.421,7.329,3.423,7.936,8.28 c0.473,3.812,0.223,2.774-21.282,35.321c-1.346,2.032-3.608,3.245-6.05,3.245c-3.801,0-2.875-0.942-34.414-21.337 c-2.031-1.346-3.245-3.607-3.245-6.049C191.334,226.408,193.449,225.374,202.779,210.665z M328.043,456.384 c-15.488,0-120.468,0-137.143,0c-0.597-9.067-15.43-234.491-16.169-245.72h9.856c-2.833,5.064-8.423,9.959-8.423,19.457 c0,7.549,3.756,14.541,10.046,18.703c27.872,17.325,31.723,23.856,42.781,23.856c7.549,0,14.54-3.756,18.703-10.046l18.029-27.248 c4.616,8.056,13.896,12.579,23.351,10.907l5.591-0.991c-12.503,102.11-21.261,175.149-21.324,181.11 c-0.051,4.176,3.286,7.554,7.452,7.624h0.131c4.105,0,7.483-3.327,7.584-7.452c0.142-6.195,10.53-92.185,21.777-184.05l14.712-2.607 c12.224-2.166,20.321-13.776,18.161-25.977l-0.583-3.286h1.64C343.267,225.067,328.911,443.195,328.043,456.384z M348.197,119.465 c1.041,0,1.887,0.841,1.887,1.876l-4.872,74.156h-5.329l-3.096-17.472c-1.56-8.802-8.093-15.613-16.399-17.773 c1.736-14.106,3.422-27.799,5.019-40.786L348.197,119.465L348.197,119.465z"/><path d="M170.606,147.95L170.606,147.95L170.606,147.95z"/><path d="M170.638,148.443c0,0.005,0.001,0.009,0.001,0.014c-0.001-0.009-0.002-0.028-0.003-0.054 C170.637,148.42,170.638,148.434,170.638,148.443z"/><path d="M170.628,148.277c-0.001-0.009-0.001-0.018-0.002-0.027C170.627,148.26,170.627,148.268,170.628,148.277z"/></svg>