<svg xmlns="http://www.w3.org/2000/svg" xmlns:xlink="http://www.w3.org/1999/xlink" version="1.1" width="58" height="58" viewBox="0 -17 512 512"><g><path style="fill:#CCD5DA" d="M409.6,75.736c-34.133,25.6-68.267,85.333-68.267,145.067h-153.6  c-36.693-35.183-52.796-86.716-42.667-136.533C213.333,161.069,256,41.602,409.6,75.736z" data-original="#CCD5DA" class=""/><path style="fill:#FEFEFE;" d="M384,92.802c-30.891,23.125-61.781,74.24-67.413,128H187.733  c-27.401-26.359-43.674-62.199-45.483-100.181C199.083,152.536,248.064,62.594,384,92.802z" data-original="#FEFEFE" class=""/><rect x="136.533" y="220.802" style="fill:#3A484F;" width="238.933" height="34.133" data-original="#3A484F"/><rect x="136.533" y="220.802" style="fill:#607A87;" width="213.333" height="34.133" data-original="#607A87"/><path d="M34.133,357.336h-25.6c-4.71,0-8.533-3.823-8.533-8.533c0-4.71,3.823-8.533,8.533-8.533h25.6  c4.71,0,8.533,3.823,8.533,8.533C42.667,353.513,38.844,357.336,34.133,357.336z" data-original="#000000" class="" style="fill:#000000"/><path d="M503.467,357.336h-25.6c-4.71,0-8.533-3.823-8.533-8.533c0-4.71,3.823-8.533,8.533-8.533h25.6  c4.71,0,8.533,3.823,8.533,8.533C512,353.513,508.177,357.336,503.467,357.336z" data-original="#000000" class="" style="fill:#000000"/><polygon style="fill:#F8D44C" points="477.867,348.802 409.6,442.669 102.4,442.669 34.133,348.802 90.027,272.002 102.4,254.936   409.6,254.936 " data-original="#F8D44C" class=""/><polygon style="fill:#FDE852" points="460.8,365.869 404.907,442.669 102.4,442.669 34.133,348.802 90.027,272.002   392.533,272.002 " data-original="#FDE852" class="active-path"/><path d="M409.6,451.202H102.4c-2.731,0.009-5.299-1.297-6.912-3.499l-68.267-93.867c-2.193-2.995-2.193-7.074,0-10.069  l68.267-93.867c1.613-2.202,4.181-3.507,6.912-3.499h307.2c2.731-0.009,5.299,1.297,6.912,3.499l68.267,93.867  c2.193,2.995,2.193,7.074,0,10.069l-68.267,93.867C414.899,449.914,412.331,451.211,409.6,451.202z M106.752,434.136h298.667  l62.037-85.333l-62.208-85.333H106.581l-61.867,85.333L106.752,434.136z" data-original="#000000" class="" style="fill:#000000"/><path d="M375.467,263.469c-4.71,0-8.533-3.823-8.533-8.533v-25.6H145.067v25.6c0,4.71-3.823,8.533-8.533,8.533  S128,259.646,128,254.936v-34.133c0-4.71,3.823-8.533,8.533-8.533h238.933c4.71,0,8.533,3.823,8.533,8.533v34.133  C384,259.655,380.177,263.469,375.467,263.469z" data-original="#000000" class="" style="fill:#000000"/><path style="fill:#CCD5DA" d="M213.333,178.136c-3.243,0.026-6.221-1.792-7.68-4.693c-9.387-19.2-9.387-38.4-0.427-66.304  c1.485-4.48,6.315-6.903,10.795-5.419c4.48,1.485,6.903,6.315,5.419,10.795c-7.765,23.381-7.936,38.315-0.427,53.248  c2.125,4.207,0.427,9.335-3.78,11.46C216.021,177.837,214.69,178.144,213.333,178.136z" data-original="#CCD5DA" class=""/><path d="M119.467,408.536c-4.71,0-8.533-3.823-8.533-8.533v-102.4c0-4.71,3.823-8.533,8.533-8.533c4.71,0,8.533,3.823,8.533,8.533  v102.4C128,404.721,124.177,408.536,119.467,408.536z" data-original="#000000" class="" style="fill:#000000"/><path d="M392.533,408.536c-4.71,0-8.533-3.823-8.533-8.533v-102.4c0-4.71,3.823-8.533,8.533-8.533s8.533,3.823,8.533,8.533v102.4  C401.067,404.721,397.244,408.536,392.533,408.536z" data-original="#000000" class="" style="fill:#000000"/><path d="M392.533,357.336H119.467c-4.71,0-8.533-3.823-8.533-8.533c0-4.71,3.823-8.533,8.533-8.533h273.067  c4.71,0,8.533,3.823,8.533,8.533C401.067,353.513,397.244,357.336,392.533,357.336z" data-original="#000000" class="" style="fill:#000000"/><path d="M341.333,229.336c-4.71,0-8.533-3.823-8.533-8.533c1.323-52.233,21.999-102.11,58.027-139.947  c-63.317-9.899-105.643,7.765-140.203,22.187s-65.707,27.392-99.499-0.853c-3.669,42.086,12.041,83.55,42.667,112.64  c3.063,3.575,2.645,8.969-0.93,12.032c-3.191,2.739-7.91,2.739-11.102,0c-38.98-37.06-56.081-91.614-45.227-144.299  c0.905-4.625,5.393-7.637,10.018-6.724c1.835,0.358,3.507,1.314,4.745,2.714c30.635,34.133,54.016,24.832,92.587,8.533  s89.429-36.949,167.595-19.883c4.599,1.015,7.509,5.572,6.494,10.172c-0.444,2.014-1.596,3.789-3.251,5.018  c-31.403,23.723-64.853,80.213-64.853,138.411C349.867,225.521,346.044,229.336,341.333,229.336z" data-original="#000000" class="" style="fill:#000000"/></g> </svg>