<svg version="1.1" xmlns="http://www.w3.org/2000/svg" width="55" height="55" viewBox="0 0 512.001 512.001">
<path style="fill:#57A4FF;" d="M375.599,179.239l23.009-0.54c38.644-0.906,75.453-16.661,102.786-43.994l0,0 c-10.342-10.343-19.747-0.938-30.09-11.28c-10.342-10.342-0.938-19.747-11.28-30.09c-10.341-10.341-19.746-0.936-30.088-11.277 s-0.937-19.746-11.278-30.088c-10.34-10.34-19.746-0.936-30.087-11.277c-10.341-10.34-0.936-19.746-11.276-30.087l0,0 c-27.333,27.333-43.088,64.143-43.994,102.786l-0.54,23.009L375.599,179.239z"/>
<path style="fill:#57A4FF;" d="M179.238,375.599l-0.54,23.009c-0.906,38.644-16.661,75.453-43.994,102.786l0,0 c-10.343-10.342-0.938-19.747-11.28-30.09c-10.342-10.342-19.747-0.938-30.09-11.28c-10.341-10.341-0.936-19.746-11.277-30.088 S62.311,429,51.969,418.658c-10.34-10.34-0.936-19.746-11.277-30.087c-10.34-10.341-19.746-0.936-30.087-11.276l0,0 c27.333-27.333,64.143-43.088,102.786-43.994l23.009-0.54L179.238,375.599z"/>
<path style="fill:#FFB655;" d="M386.749,234.487L234.485,386.752c-12.177,12.177-31.92,12.177-44.098,0l-65.138-65.138 c-12.177-12.177-12.177-31.92,0-44.098l152.265-152.265c12.177-12.177,31.92-12.177,44.098,0l65.138,65.138  C398.927,202.567,398.927,222.31,386.749,234.487z"/>
<polygon style="fill:#FF7956;" points="162.504,338.869 207.902,384.267 207.902,214.862 162.504,260.26"/>
<path style="fill:#FF7956;" d="M253.301,367.937l45.398-45.398V124.125c-0.403,0.363-0.798,0.738-1.186,1.126L253.3,169.464     L253.301,367.937L253.301,367.937z"/>
<path style="fill:#FF7956;" d="M344.096,147.736V277.14l42.653-42.653c0.997-0.997,1.912-2.045,2.745-3.135v-37.829 c-0.833-1.09-1.748-2.138-2.745-3.135L344.096,147.736z"/>
<path style="fill:#FF7956;" d="M220.386,386.752l-65.138-65.138c-12.177-12.177-12.177-31.92,0-44.098l152.265-152.265 c2.143-2.143,4.521-3.908,7.05-5.297c-11.842-6.503-27.014-4.738-37.048,5.297L125.25,277.516 c-12.177,12.177-12.177,31.92,0,44.098l65.138,65.138c10.035,10.034,25.206,11.799,37.048,5.297        C224.906,390.659,222.529,388.895,220.386,386.752z"/>
<path style="fill:#006DF0;" d="M362.76,136.402l0.54-23.009c0.635-27.074,8.559-53.247,22.646-75.893 c-5.974-9.111,0.617-17.626-8.651-26.894l0,0c-27.333,27.333-43.088,64.143-43.994,102.786l-0.54,23.009l42.837,42.837l23.009-0.54 c2.065-0.048,4.124-0.14,6.177-0.272L362.76,136.402z"/>
<path style="fill:#006DF0;" d="M153.424,471.305c-10.342-10.342-19.747-0.938-30.09-11.28 c-10.341-10.341-0.936-19.746-11.277-30.088s-19.746-0.937-30.088-11.278c-10.34-10.34-0.936-19.746-11.277-30.087 c-10.34-10.341-19.746-0.936-30.087-11.276l0,0c25.873-25.873,60.236-41.371,96.609-43.722l-0.812-0.812l-23.009,0.54 c-38.644,0.906-75.453,16.661-102.786,43.994l0,0c10.34,10.34,19.746,0.936,30.087,11.276c10.341,10.34,0.936,19.746,11.277,30.087 c10.341,10.342,19.746,0.937,30.088,11.278c10.341,10.342,0.936,19.746,11.277,30.088c10.342,10.342,19.747,0.938,30.09,11.28 c10.343,10.342,0.938,19.747,11.28,30.09l0,0c8.183-8.183,15.327-17.216,21.348-26.893 C155.359,473.445,154.498,472.38,153.424,471.305z"/>
<path style="fill:#57A4FF;" d="M234.486,386.752c-0.387,0.387-0.782,0.762-1.184,1.124V169.464l44.213-44.213 c0.388-0.388,0.783-0.763,1.186-1.126v218.411L234.486,386.752z M142.505,260.26v78.609l45.398,45.398V214.862L142.505,260.26z M369.495,173.136l-45.398-45.398V297.14l45.398-45.398V173.136z"/>
<path style="fill:#006DF0;" d="M253.301,169.464l25.399-25.399v-19.939c-0.403,0.363-0.798,0.738-1.186,1.126l-44.213,44.213 v218.411c0.402-0.362,0.797-0.737,1.184-1.124l18.815-18.815L253.301,169.464L253.301,169.464z"/>
<polygon style="fill:#006DF0;" points="162.504,338.869 162.504,260.26 187.903,234.861 187.903,214.862 142.505,260.26 142.505,338.869 187.903,384.267 187.903,364.268"/>
<polygon style="fill:#006DF0;" points="344.096,147.736 324.097,127.737 324.097,297.139 344.096,277.14  "/>
<path d="M506.698,140.01l5.303-5.304l-5.303-5.303c-7.223-7.224-14.603-7.574-19.993-7.83c-4.499-0.214-6.978-0.331-10.097-3.452 c-3.121-3.12-3.238-5.599-3.452-10.098c-0.256-5.39-0.606-12.77-7.829-19.993c-7.222-7.221-14.602-7.57-19.991-7.826 c-4.498-0.213-6.976-0.331-10.096-3.451c-3.12-3.119-3.238-5.598-3.451-10.096c-0.256-5.39-0.605-12.77-7.828-19.993 c-7.222-7.221-14.602-7.57-19.99-7.826c-4.499-0.213-6.977-0.331-10.096-3.451c-3.12-3.119-3.237-5.597-3.45-10.095  c-0.256-5.39-0.605-12.77-7.827-19.992l-5.305-5.303l-5.304,5.303c-28.829,28.83-45.232,67.154-46.188,107.914l-0.13,5.545 c-15.159-13.883-38.787-13.488-53.463,1.187L119.946,272.213c-14.674,14.675-15.069,38.303-1.189,53.461l-5.542,0.13 c-40.76,0.956-79.084,17.359-107.914,46.188L0,377.295l5.303,5.304c7.223,7.222,14.603,7.571,19.992,7.827 c4.498,0.213,6.976,0.33,10.095,3.45c3.12,3.12,3.238,5.598,3.451,10.096c0.256,5.389,0.605,12.769,7.827,19.991 c7.222,7.222,14.603,7.571,19.992,7.827c4.498,0.213,6.977,0.331,10.096,3.451c3.12,3.12,3.238,5.598,3.451,10.096  c0.256,5.39,0.605,12.77,7.827,19.992c7.223,7.222,14.603,7.572,19.992,7.828c4.499,0.214,6.978,0.331,10.098,3.451 c3.121,3.121,3.238,5.6,3.452,10.098c0.256,5.391,0.606,12.77,7.83,19.993l5.303,5.303l5.304-5.303 c28.829-28.83,45.232-67.154,46.188-107.914l0.13-5.542c7.37,6.748,16.738,10.122,26.109,10.122c9.906,0,19.811-3.771,27.353-11.311 L392.053,239.79c14.663-14.664,15.069-38.269,1.219-53.428l5.513-0.165C439.544,185.241,477.869,168.838,506.698,140.01z M136.681,488.256c-0.051-0.698-0.086-1.447-0.125-2.262c-0.256-5.39-0.606-12.77-7.828-19.993 c-7.223-7.222-14.603-7.572-19.992-7.828c-4.5-0.214-6.979-0.331-10.099-3.451s-3.237-5.598-3.45-10.096 c-0.256-5.39-0.605-12.77-7.827-19.992c-7.223-7.222-14.603-7.571-19.992-7.827c-4.499-0.213-6.977-0.331-10.097-3.45  c-3.12-3.12-3.237-5.598-3.45-10.096c-0.256-5.39-0.605-12.77-7.827-19.992c-7.222-7.221-14.602-7.57-19.991-7.826 c-0.813-0.038-1.561-0.074-2.258-0.125c25.009-21.561,56.517-33.737,89.821-34.519l19.797-0.464l0.798,0.798l-6.223,2.351 c-13.606,5.141-27.729,12.492-41.976,21.854l8.236,12.534c13.327-8.757,26.463-15.606,39.04-20.358l12.56-4.744l1.411,1.411 l-33.358,33.358l10.606,10.606l33.358-33.358l13.847,13.847l-0.464,19.797C170.421,431.737,158.242,463.248,136.681,488.256z M381.446,229.183L229.181,381.448c-4.473,4.474-10.419,6.938-16.745,6.938c-6.326,0-12.272-2.464-16.745-6.938l-65.138-65.138 c-4.474-4.473-6.938-10.419-6.938-16.745s2.464-12.272,6.938-16.745l152.264-152.265c4.473-4.474,10.419-6.937,16.745-6.937 s12.272,2.463,16.745,6.937l65.139,65.139c4.474,4.473,6.937,10.419,6.937,16.745C388.382,218.765,385.919,224.712,381.446,229.183z M378.633,171.666l-0.797-0.797l6.225-2.352c13.606-5.141,27.729-12.492,41.976-21.854l-8.236-12.534 c-13.327,8.757-26.463,15.606-39.04,20.358l-12.562,4.745l-1.41-1.41l33.36-33.36l-10.606-10.606l-33.36,33.36l-13.845-13.845  l0.464-19.8c0.781-33.304,12.958-64.812,34.519-89.821c0.051,0.697,0.087,1.444,0.125,2.258c0.256,5.39,0.605,12.77,7.826,19.991 c7.223,7.222,14.603,7.571,19.992,7.827c4.499,0.213,6.977,0.33,10.096,3.449c3.12,3.121,3.238,5.599,3.451,10.098 c0.256,5.39,0.605,12.77,7.827,19.992c7.223,7.222,14.603,7.571,19.992,7.827c4.499,0.213,6.977,0.33,10.096,3.449  c3.121,3.121,3.238,5.6,3.452,10.1c0.256,5.39,0.606,12.77,7.829,19.992c7.222,7.222,14.603,7.572,19.992,7.828 c0.814,0.039,1.563,0.074,2.262,0.125c-25.009,21.562-56.518,33.739-89.823,34.52L378.633,171.666z"/>
<path style="fill:#FFFFFF;" d="M137.237,413.164l12.724,7.941c2.777-4.449,5.395-8.952,7.778-13.382l-13.208-7.107 C142.299,404.764,139.845,408.986,137.237,413.164z"/>
<path style="fill:#FaFFFFF;" d="M148.892,392.026l13.538,6.455c2.309-4.841,4.375-9.678,6.144-14.375l-14.038-5.283 C152.917,383.125,151.018,387.567,148.892,392.026z"/>
<path style="fill:#FFFFFF;" d="M119.487,438.176l11.729,9.35c4.655-5.841,9.072-11.829,13.129-17.801l-12.407-8.43 C128.096,426.954,123.906,432.632,119.487,438.176z"/>
<path style="fill:#FFFFFF;" d="M357.553,98.371l12.995,7.488c2.359-4.095,4.933-8.256,7.648-12.367l-12.517-8.266 C362.797,89.591,360.062,94.014,357.553,98.371z"/>
<path style="fill:#FFFFFF;" d="M343.426,127.896l14.038,5.281c2.299-6.11,5.142-12.45,8.449-18.844l-13.321-6.893 C349.015,114.355,345.931,121.238,343.426,127.896z"/>
<path style="fill:#FFFFFF;" d="M371.503,76.758l12.202,8.724c2.785-3.896,5.748-7.818,8.808-11.655l-11.729-9.35 C377.563,68.518,374.441,72.649,371.503,76.758z"/>
<rect x="248.498" y="222.79" style="fill:#FFFFFF;" width="14.999" height="85.606"/>
<rect x="248.498" y="197.791" style="fill:#FFFFFF;" width="14.999" height="14.999"/>
<rect x="248.498" y="172.792" style="fill:#FFFFFF;" width="14.999" height="14.999"/>
<rect x="340.273" y="224.63" width="14.999" height="26.683"/>
<rect x="340.273" y="199.631" width="14.999" height="14.999"/>
<rect x="340.273" y="174.632" width="14.999" height="14.999"/>
<rect x="294.006" y="220.1" style="fill:#FFFFFF;" width="14.999" height="81.416"/>
<rect x="156.522" y="291.656" width="14.999" height="14.999"/>
<rect x="156.522" y="316.655" width="14.999" height="14.999"/>
<rect x="156.522" y="266.658" width="14.999" height="14.999"/>
<rect x="361.992" y="201.421" width="14.999" height="22.039"/>
<rect x="316.595" y="156.023" width="14.999" height="112.834"/>
<rect x="180.401" y="243.149" width="14.999" height="112.834"/>
<rect x="135.003" y="288.546" width="14.999" height="22.039"/>
<rect x="225.799" y="197.751" width="14.999" height="161.902"/>
<rect x="271.197" y="152.353" width="14.999" height="161.902"/>
</svg>