<svg xmlns="http://www.w3.org/2000/svg" width="65" height="60" viewbox="0 0 512 512"><rect x="81.36" y="59.23" style="fill:#279FC9;" width="349.27" height="393.53"/><path d="M387.09,108.229c-0.66,0-1.31-0.069-1.96-0.2c-0.64-0.13-1.26-0.319-1.87-0.569c-0.6-0.25-1.18-0.561-1.72-0.92 c-0.55-0.36-1.061-0.78-1.521-1.25c-0.46-0.46-0.88-0.971-1.25-1.521c-0.359-0.54-0.67-1.12-0.92-1.72s-0.439-1.23-0.569-1.87 c-0.131-0.65-0.19-1.3-0.19-1.95c0-0.66,0.06-1.31,0.19-1.96c0.13-0.64,0.319-1.27,0.569-1.87c0.25-0.6,0.561-1.18,0.92-1.729 c0.37-0.54,0.79-1.05,1.25-1.521c0.46-0.46,0.971-0.87,1.521-1.239c0.54-0.36,1.12-0.67,1.72-0.92c0.61-0.25,1.23-0.44,1.87-0.57 c1.29-0.26,2.62-0.26,3.91,0c0.64,0.13,1.27,0.32,1.87,0.57s1.189,0.56,1.729,0.92c0.55,0.369,1.061,0.779,1.521,1.239 c0.46,0.471,0.88,0.98,1.239,1.521c0.36,0.55,0.67,1.13,0.92,1.729c0.25,0.601,0.44,1.23,0.57,1.87c0.13,0.65,0.2,1.3,0.2,1.96 c0,0.65-0.07,1.3-0.2,1.95c-0.13,0.64-0.32,1.271-0.57,1.87c-0.25,0.6-0.56,1.18-0.92,1.72c-0.359,0.55-0.779,1.061-1.239,1.521 c-0.46,0.47-0.971,0.89-1.521,1.25c-0.54,0.359-1.13,0.67-1.729,0.92c-0.601,0.25-1.23,0.439-1.87,0.569 C388.398,108.16,387.74,108.229,387.09,108.229z"/><path d="M121.45,423.779c-2.641,0-5.21-1.069-7.07-2.93c-0.46-0.47-0.88-0.98-1.25-1.52c-0.36-0.551-0.67-1.13-0.92-1.73 s-0.44-1.23-0.57-1.87c-0.13-0.649-0.189-1.3-0.189-1.96c0-0.649,0.06-1.31,0.189-1.95c0.13-0.64,0.32-1.27,0.57-1.869 c0.25-0.601,0.56-1.181,0.92-1.73c0.37-0.54,0.79-1.06,1.25-1.52s0.97-0.881,1.52-1.24c0.54-0.36,1.12-0.67,1.721-0.92 c0.609-0.25,1.239-0.44,1.87-0.57c1.29-0.26,2.619-0.26,3.909,0c0.641,0.13,1.271,0.32,1.87,0.57c0.61,0.25,1.19,0.56,1.73,0.92 c0.55,0.359,1.06,0.78,1.52,1.24s0.88,0.979,1.24,1.52c0.36,0.55,0.67,1.13,0.92,1.73s0.44,1.229,0.57,1.869 c0.13,0.641,0.2,1.301,0.2,1.95c0,0.65-0.07,1.311-0.2,1.96c-0.13,0.641-0.32,1.271-0.57,1.87c-0.25,0.601-0.56,1.18-0.92,1.73 c-0.36,0.54-0.78,1.05-1.24,1.52c-0.46,0.46-0.97,0.88-1.52,1.24c-0.54,0.36-1.12,0.67-1.73,0.92c-0.6,0.25-1.229,0.44-1.87,0.57 C122.76,423.71,122.1,423.779,121.45,423.779z"/><g><polygon style="fill:#FFD15C;" points="96.256,481.834 116.422,502 139.988,502 160.154,481.834 180.32,502 203.884,502 224.05,481.834 244.216,502 267.783,502 287.949,481.834 308.115,502 331.68,502 351.846,481.834 372.012,502 395.578,502 415.743,481.834 435.91,502 437.868,502 430.635,452.765 81.365,452.765 74.131,502 76.09,502 "/><polygon style="fill:#FFD15C;" points="415.743,30.166 395.578,10 372.012,10 351.846,30.166 331.68,10 308.115,10 287.949,30.166 267.783,10 244.216,10 224.05,30.166 203.884,10 180.32,10 160.154,30.166 139.988,10 116.422,10 96.256,30.166 76.09,10 74.131,10 81.365,59.235 430.635,59.235 437.868,10 435.91,10 "/></g><path d="M440.635,452.036V59.964l7.128-48.51c0.423-2.875-0.427-5.792-2.326-7.991C443.536,1.264,440.775,0,437.868,0h-1.96 c-2.652,0-5.196,1.054-7.071,2.929l-13.094,13.095L402.648,2.929C400.772,1.054,398.229,0,395.577,0h-23.565 c-2.652,0-5.195,1.054-7.071,2.929l-13.095,13.095L338.751,2.929C336.875,1.054,334.332,0,331.68,0h-23.565 c-2.652,0-5.195,1.054-7.071,2.929l-13.095,13.095L274.853,2.929C272.978,1.054,270.435,0,267.782,0h-23.565 c-2.652,0-5.195,1.054-7.071,2.929l-13.095,13.095L210.955,2.929C209.079,1.054,206.536,0,203.884,0h-23.565 c-2.652,0-5.195,1.054-7.071,2.929l-13.095,13.095L147.059,2.929C145.182,1.054,142.639,0,139.986,0h-23.565 c-2.652,0-5.195,1.054-7.071,2.929L96.256,16.023L83.161,2.929C81.285,1.054,78.742,0,76.09,0h-1.959 c-2.906,0-5.668,1.264-7.567,3.463s-2.749,5.116-2.326,7.991l7.128,48.51v392.072l-7.128,48.51 c-0.423,2.875,0.427,5.792,2.326,7.991c1.899,2.199,4.661,3.463,7.567,3.463h1.96c2.652,0,5.196-1.054,7.071-2.929l13.094-13.095 l13.096,13.095c1.876,1.875,4.419,2.929,7.071,2.929h23.565c2.652,0,5.195-1.054,7.071-2.929l13.095-13.095l13.095,13.095 c1.876,1.875,4.419,2.929,7.071,2.929h23.565c2.652,0,5.195-1.054,7.071-2.929l13.095-13.095l13.095,13.095 c1.876,1.875,4.419,2.929,7.071,2.929h23.565c2.652,0,5.195-1.054,7.071-2.929l13.095-13.095l13.095,13.095 c1.876,1.875,4.419,2.929,7.071,2.929h23.565c2.652,0,5.195-1.054,7.071-2.929l13.095-13.095l13.095,13.095 c1.876,1.875,4.419,2.929,7.071,2.929h23.565c2.652,0,5.195-1.054,7.071-2.929l13.095-13.095l13.095,13.095 c1.876,1.875,4.419,2.929,7.071,2.929h1.959c2.906,0,5.668-1.264,7.567-3.463s2.749-5.116,2.326-7.991L440.635,452.036z M91.365,108.226H348.01c5.522,0,10-4.478,10-10s-4.478-10-10-10H91.365V69.234h329.27v334.54H160.522c-5.522,0-10,4.478-10,10 s4.478,10,10,10h260.111v18.991H91.365V108.226z M89.185,37.237c3.906,3.904,10.236,3.904,14.143,0L120.564,20h15.28l17.237,17.237 c3.906,3.904,10.236,3.904,14.143,0L184.462,20h15.28l17.237,17.237c3.906,3.904,10.236,3.904,14.143,0L248.358,20h15.28 l17.237,17.237c3.906,3.904,10.236,3.904,14.142,0L312.257,20h15.28l17.237,17.237c3.906,3.904,10.236,3.904,14.143,0L376.154,20 h15.281l17.237,17.237c1.876,1.875,4.419,2.929,7.071,2.929s5.196-1.054,7.071-2.929l1.107-1.107l-1.925,13.104H90.003L88.078,36.13 L89.185,37.237z M422.815,474.763c-3.906-3.904-10.236-3.904-14.142,0L391.435,492h-15.28l-17.237-17.237 c-3.906-3.904-10.236-3.904-14.143,0L327.538,492h-15.28l-17.237-17.237c-3.906-3.904-10.236-3.904-14.143,0L263.641,492h-15.28 l-17.237-17.237c-3.906-3.904-10.236-3.904-14.143,0L199.742,492h-15.28l-17.237-17.237c-3.906-3.904-10.236-3.904-14.143,0 L135.845,492h-15.281l-17.237-17.237c-1.876-1.875-4.419-2.929-7.071-2.929s-5.196,1.054-7.071,2.929l-1.106,1.107l1.925-13.104 h331.994l1.925,13.104L422.815,474.763z"/><circle style="fill:#EECCB0;" cx="255.999" cy="256" r="120.49"/><path d="M255.999,386.486c-71.95,0-130.486-58.536-130.486-130.486s58.536-130.486,130.486-130.486S386.486,184.05,386.486,256 S327.95,386.486,255.999,386.486z M255.999,145.514c-60.923,0-110.486,49.563-110.486,110.486s49.563,110.486,110.486,110.486 S366.486,316.923,366.486,256S316.923,145.514,255.999,145.514z"/><path style="fill:#FF8859;" d="M262.294,251.439c13.109-13.109,20.539-29.341,28.125-38.565 c-11.917,1.016-28.873,7.429-47.695,7.429c-36.081,0-65.314-23.579-65.314,12.502c0,26.908,16.283,46.918,39.538,55.344 C220.783,276.616,244.434,269.298,262.294,251.439z"/><path style="fill:#F2995E;" d="M317.319,214.096c25.497,25.497,21.572,62.915-3.941,88.427 c-25.513,25.513-62.93,29.439-88.427,3.941c-25.513-25.513,11.831-29.512,37.344-55.025 C287.807,225.926,291.806,188.583,317.319,214.096L317.319,214.096z"/><path d="M324.39,207.024c-8.504-8.505-16.452-12.22-24.332-11.349c-5.844,0.645-10.467,3.515-14.585,7.726 c-4.112,0.616-8.486,1.593-13.05,2.612c-9.011,2.011-19.224,4.291-29.699,4.291s-20.689-2.281-29.701-4.293 c-14.468-3.231-26.964-6.02-36.433,1.564c-6.177,4.95-9.18,13.203-9.18,25.23c0,27.161,14.858,50.272,39.256,61.875 c0.97,6.1,4.675,12.315,11.213,18.854c13.118,13.118,29.917,20.2,47.694,20.2c1.396,0,2.802-0.044,4.208-0.132 c18.337-1.146,36.331-9.673,50.668-24.009c14.336-14.337,22.862-32.331,24.009-50.668 C345.665,239.605,338.538,221.173,324.39,207.024z M187.41,232.807c0-7.916,1.67-9.609,1.686-9.623 c1.973-1.58,12.987,0.878,19.567,2.347c9.524,2.127,21.378,4.774,34.06,4.774c9.306,0,18.166-1.425,25.987-3.023 c-3.859,5.826-8.218,11.818-13.488,17.087c-7.407,7.407-16.242,13.017-24.037,17.966c-6.943,4.408-13.36,8.483-17.926,13.295 C196.934,267.069,187.41,251.53,187.41,232.807z M324.497,257.68c-0.843,13.47-7.303,26.885-18.19,37.772 c-10.888,10.888-24.303,17.348-37.772,18.191c-13.715,0.848-26.334-4.07-36.513-14.25c-5.598-5.597-5.614-7.975-5.612-7.996 c0.001-0.005,0.002-0.011,0.002-0.016c0.056-0.165,0.108-0.331,0.155-0.497c1.298-2.751,10.003-8.277,15.338-11.665 c8.239-5.23,18.492-11.741,27.46-20.708c8.967-8.968,15.478-19.221,20.708-27.46c2.169-3.416,5.215-8.213,7.847-11.563 c0.203-0.23,0.395-0.47,0.576-0.718c1.519-1.849,2.86-3.116,3.754-3.215c0,0,0.001,0,0.003,0c0.102,0,2.493,0.111,7.993,5.612 C320.426,231.346,325.353,243.971,324.497,257.68z"/></svg>